<?xml version="1.0" encoding="UTF-8" standalone="no"?><svg xmlns="http://www.w3.org/2000/svg" xmlns:xlink="http://www.w3.org/1999/xlink" contentScriptType="application/ecmascript" contentStyleType="text/css" height="449px" preserveAspectRatio="none" style="width:704px;height:449px;background:#FFFFFF;" version="1.1" viewBox="0 0 704 449" width="704px" zoomAndPan="magnify"><defs><filter height="300%" id="fa5qzbezshf9l" width="300%" x="-1" y="-1"><feGaussianBlur result="blurOut" stdDeviation="2.0"/><feColorMatrix in="blurOut" result="blurOut2" type="matrix" values="0 0 0 0 0 0 0 0 0 0 0 0 0 0 0 0 0 0 .4 0"/><feOffset dx="4.0" dy="4.0" in="blurOut2" result="blurOut3"/><feBlend in="SourceGraphic" in2="blurOut3" mode="normal"/></filter></defs><g><line style="stroke:#A80036;stroke-width:1.0;stroke-dasharray:5.0,5.0;" x1="104" x2="104" y1="67.4883" y2="380.5938"/><line style="stroke:#A80036;stroke-width:1.0;stroke-dasharray:5.0,5.0;" x1="261" x2="261" y1="67.4883" y2="380.5938"/><line style="stroke:#A80036;stroke-width:1.0;stroke-dasharray:5.0,5.0;" x1="374" x2="374" y1="67.4883" y2="380.5938"/><line style="stroke:#A80036;stroke-width:1.0;stroke-dasharray:5.0,5.0;" x1="499" x2="499" y1="67.4883" y2="380.5938"/><line style="stroke:#A80036;stroke-width:1.0;stroke-dasharray:5.0,5.0;" x1="635" x2="635" y1="67.4883" y2="380.5938"/><text fill="#000000" font-family="sans-serif" font-size="14" lengthAdjust="spacing" textLength="192" x="5" y="64.5352">Local Repository(Last Index)</text><path d="M86,15 C86,5 104,5 104,5 C104,5 122,5 122,15 L122,41 C122,51 104,51 104,51 C104,51 86,51 86,41 L86,15 " fill="#FEFECE" filter="url(#fa5qzbezshf9l)" style="stroke:#000000;stroke-width:1.5;"/><path d="M86,15 C86,25 104,25 104,25 C104,25 122,25 122,15 " fill="none" style="stroke:#000000;stroke-width:1.5;"/><text fill="#000000" font-family="sans-serif" font-size="14" lengthAdjust="spacing" textLength="192" x="5" y="393.1289">Local Repository(Last Index)</text><path d="M86,406.082 C86,396.082 104,396.082 104,396.082 C104,396.082 122,396.082 122,406.082 L122,432.082 C122,442.082 104,442.082 104,442.082 C104,442.082 86,442.082 86,432.082 L86,406.082 " fill="#FEFECE" filter="url(#fa5qzbezshf9l)" style="stroke:#000000;stroke-width:1.5;"/><path d="M86,406.082 C86,416.082 104,416.082 104,416.082 C104,416.082 122,416.082 122,406.082 " fill="none" style="stroke:#000000;stroke-width:1.5;"/><rect fill="#FEFECE" filter="url(#fa5qzbezshf9l)" height="30.4883" style="stroke:#A80036;stroke-width:1.5;" width="88" x="217" y="28"/><rect fill="#FEFECE" filter="url(#fa5qzbezshf9l)" height="30.4883" style="stroke:#A80036;stroke-width:1.5;" width="88" x="213" y="32"/><text fill="#000000" font-family="sans-serif" font-size="14" lengthAdjust="spacing" textLength="74" x="220" y="52.5352">Workspace</text><rect fill="#FEFECE" filter="url(#fa5qzbezshf9l)" height="30.4883" style="stroke:#A80036;stroke-width:1.5;" width="88" x="217" y="379.5938"/><rect fill="#FEFECE" filter="url(#fa5qzbezshf9l)" height="30.4883" style="stroke:#A80036;stroke-width:1.5;" width="88" x="213" y="383.5938"/><text fill="#000000" font-family="sans-serif" font-size="14" lengthAdjust="spacing" textLength="74" x="220" y="404.1289">Workspace</text><path d="M324,41 L425,41 C430,41 430,54.2441 430,54.2441 C430,54.2441 430,67.4883 425,67.4883 L324,67.4883 C319,67.4883 319,54.2441 319,54.2441 C319,54.2441 319,41 324,41 " fill="#FEFECE" filter="url(#fa5qzbezshf9l)" style="stroke:#A80036;stroke-width:2.0;"/><path d="M425,41 C420,41 420,54.2441 420,54.2441 C420,67.4883 425,67.4883 425,67.4883 " fill="none" style="stroke:#A80036;stroke-width:2.0;"/><text fill="#000000" font-family="sans-serif" font-size="14" lengthAdjust="spacing" textLength="91" x="324" y="59.5352">Stage (Index)</text><path d="M324,379.5938 L425,379.5938 C430,379.5938 430,392.8379 430,392.8379 C430,392.8379 430,406.082 425,406.082 L324,406.082 C319,406.082 319,392.8379 319,392.8379 C319,392.8379 319,379.5938 324,379.5938 " fill="#FEFECE" filter="url(#fa5qzbezshf9l)" style="stroke:#A80036;stroke-width:2.0;"/><path d="M425,379.5938 C420,379.5938 420,392.8379 420,392.8379 C420,406.082 425,406.082 425,406.082 " fill="none" style="stroke:#A80036;stroke-width:2.0;"/><text fill="#000000" font-family="sans-serif" font-size="14" lengthAdjust="spacing" textLength="91" x="324" y="398.1289">Stage (Index)</text><text fill="#000000" font-family="sans-serif" font-size="14" lengthAdjust="spacing" textLength="112" x="440" y="64.5352">Local Repository</text><path d="M481,15 C481,5 499,5 499,5 C499,5 517,5 517,15 L517,41 C517,51 499,51 499,51 C499,51 481,51 481,41 L481,15 " fill="#FEFECE" filter="url(#fa5qzbezshf9l)" style="stroke:#000000;stroke-width:1.5;"/><path d="M481,15 C481,25 499,25 499,25 C499,25 517,25 517,15 " fill="none" style="stroke:#000000;stroke-width:1.5;"/><text fill="#000000" font-family="sans-serif" font-size="14" lengthAdjust="spacing" textLength="112" x="440" y="393.1289">Local Repository</text><path d="M481,406.082 C481,396.082 499,396.082 499,396.082 C499,396.082 517,396.082 517,406.082 L517,432.082 C517,442.082 499,442.082 499,442.082 C499,442.082 481,442.082 481,432.082 L481,406.082 " fill="#FEFECE" filter="url(#fa5qzbezshf9l)" style="stroke:#000000;stroke-width:1.5;"/><path d="M481,406.082 C481,416.082 499,416.082 499,416.082 C499,416.082 517,416.082 517,406.082 " fill="none" style="stroke:#000000;stroke-width:1.5;"/><text fill="#000000" font-family="sans-serif" font-size="14" lengthAdjust="spacing" textLength="129" x="568" y="64.5352">Remote Repository</text><path d="M617.5,15 C617.5,5 635.5,5 635.5,5 C635.5,5 653.5,5 653.5,15 L653.5,41 C653.5,51 635.5,51 635.5,51 C635.5,51 617.5,51 617.5,41 L617.5,15 " fill="#FEFECE" filter="url(#fa5qzbezshf9l)" style="stroke:#000000;stroke-width:1.5;"/><path d="M617.5,15 C617.5,25 635.5,25 635.5,25 C635.5,25 653.5,25 653.5,15 " fill="none" style="stroke:#000000;stroke-width:1.5;"/><text fill="#000000" font-family="sans-serif" font-size="14" lengthAdjust="spacing" textLength="129" x="568" y="393.1289">Remote Repository</text><path d="M617.5,406.082 C617.5,396.082 635.5,396.082 635.5,396.082 C635.5,396.082 653.5,396.082 653.5,406.082 L653.5,432.082 C653.5,442.082 635.5,442.082 635.5,442.082 C635.5,442.082 617.5,442.082 617.5,432.082 L617.5,406.082 " fill="#FEFECE" filter="url(#fa5qzbezshf9l)" style="stroke:#000000;stroke-width:1.5;"/><path d="M617.5,406.082 C617.5,416.082 635.5,416.082 635.5,416.082 C635.5,416.082 653.5,416.082 653.5,406.082 " fill="none" style="stroke:#000000;stroke-width:1.5;"/><polygon fill="#A80036" points="249,94.7988,259,98.7988,249,102.7988,253,98.7988" style="stroke:#A80036;stroke-width:1.0;"/><line style="stroke:#A80036;stroke-width:1.0;" x1="104" x2="255" y1="98.7988" y2="98.7988"/><text fill="#000000" font-family="sans-serif" font-size="13" lengthAdjust="spacing" textLength="48" x="111" y="94.0566">edit file</text><polygon fill="#A80036" points="115,124.1094,105,128.1094,115,132.1094,111,128.1094" style="stroke:#A80036;stroke-width:1.0;"/><line style="stroke:#A80036;stroke-width:1.0;" x1="109" x2="260" y1="128.1094" y2="128.1094"/><text fill="#000000" font-family="sans-serif" font-size="13" lengthAdjust="spacing" textLength="79" x="121" y="123.3672">git checkout</text><polygon fill="#A80036" points="362.5,153.4199,372.5,157.4199,362.5,161.4199,366.5,157.4199" style="stroke:#A80036;stroke-width:1.0;"/><line style="stroke:#A80036;stroke-width:1.0;" x1="261" x2="368.5" y1="157.4199" y2="157.4199"/><text fill="#000000" font-family="sans-serif" font-size="13" lengthAdjust="spacing" textLength="44" x="268" y="152.6777">git add</text><polygon fill="#A80036" points="272,182.7305,262,186.7305,272,190.7305,268,186.7305" style="stroke:#A80036;stroke-width:1.0;"/><line style="stroke:#A80036;stroke-width:1.0;" x1="266" x2="373.5" y1="186.7305" y2="186.7305"/><text fill="#000000" font-family="sans-serif" font-size="13" lengthAdjust="spacing" textLength="52" x="278" y="181.9883">git reset</text><polygon fill="#A80036" points="487,212.041,497,216.041,487,220.041,491,216.041" style="stroke:#A80036;stroke-width:1.0;"/><line style="stroke:#A80036;stroke-width:1.0;" x1="374.5" x2="493" y1="216.041" y2="216.041"/><text fill="#000000" font-family="sans-serif" font-size="13" lengthAdjust="spacing" textLength="69" x="381.5" y="211.2988">git commit</text><polygon fill="#A80036" points="272,241.3516,262,245.3516,272,249.3516,268,245.3516" style="stroke:#A80036;stroke-width:1.0;"/><line style="stroke:#A80036;stroke-width:1.0;" x1="266" x2="498" y1="245.3516" y2="245.3516"/><text fill="#000000" font-family="sans-serif" font-size="13" lengthAdjust="spacing" textLength="94" x="278" y="240.6094">git reset head^</text><polygon fill="#A80036" points="115,270.6621,105,274.6621,115,278.6621,111,274.6621" style="stroke:#A80036;stroke-width:1.0;"/><line style="stroke:#A80036;stroke-width:1.0;" x1="109" x2="498" y1="274.6621" y2="274.6621"/><text fill="#000000" font-family="sans-serif" font-size="13" lengthAdjust="spacing" textLength="142" x="121" y="269.9199">git reset head^ --hard</text><polygon fill="#A80036" points="623.5,299.9727,633.5,303.9727,623.5,307.9727,627.5,303.9727" style="stroke:#A80036;stroke-width:1.0;"/><line style="stroke:#A80036;stroke-width:1.0;" x1="499" x2="629.5" y1="303.9727" y2="303.9727"/><text fill="#000000" font-family="sans-serif" font-size="13" lengthAdjust="spacing" textLength="52" x="506" y="299.2305">git push</text><polygon fill="#A80036" points="510,329.2832,500,333.2832,510,337.2832,506,333.2832" style="stroke:#A80036;stroke-width:1.0;"/><line style="stroke:#A80036;stroke-width:1.0;" x1="504" x2="634.5" y1="333.2832" y2="333.2832"/><text fill="#000000" font-family="sans-serif" font-size="13" lengthAdjust="spacing" textLength="53" x="516" y="328.541">git fetch</text><polygon fill="#A80036" points="272,358.5938,262,362.5938,272,366.5938,268,362.5938" style="stroke:#A80036;stroke-width:1.0;"/><line style="stroke:#A80036;stroke-width:1.0;" x1="266" x2="634.5" y1="362.5938" y2="362.5938"/><text fill="#000000" font-family="sans-serif" font-size="13" lengthAdjust="spacing" textLength="45" x="278" y="357.8516">git pull</text><!--MD5=[259552c38008f7eaa8c8d8c550928df9]
@startuml
database "Local Repository(Last Index)" as start
collections Workspace as workspace
queue "Stage (Index)" as stage
database "Local Repository" as local
database "Remote Repository" as remote
start -> workspace : edit file
workspace -> start : git checkout 
workspace -> stage : git add 
stage -> workspace : git reset
stage -> local : git commit
local -> workspace : git reset head^
local -> start : git reset head^ - -hard
local -> remote : git push
remote -> local : git fetch
remote -> workspace : git pull
@enduml

PlantUML version 1.2021.9(Sun Jul 25 18:13:56 SGT 2021)
(GPL source distribution)
Java Runtime: Java(TM) SE Runtime Environment
JVM: Java HotSpot(TM) 64-Bit Server VM
Default Encoding: UTF-8
Language: en
Country: SG
--></g></svg>