<?xml version="1.0" encoding="us-ascii" standalone="no"?><svg xmlns="http://www.w3.org/2000/svg" xmlns:xlink="http://www.w3.org/1999/xlink" contentStyleType="text/css" height="401px" preserveAspectRatio="none" style="width:418px;height:401px;background:#FFFFFF;" version="1.1" viewBox="0 0 418 401" width="418px" zoomAndPan="magnify"><defs/><g><rect fill="#E9967A" height="288.7949" style="stroke:#181818;stroke-width:1.0;" width="10" x="45.5" y="67.7988"/><rect fill="#008080" height="125.2422" style="stroke:#181818;stroke-width:1.0;" width="10" x="130.5" y="67.7988"/><rect fill="#008080" height="100.9316" style="stroke:#181818;stroke-width:1.0;" width="10" x="130.5" y="255.6621"/><line style="stroke:#181818;stroke-width:0.5;stroke-dasharray:5.0,5.0;" x1="50" x2="50" y1="36.4883" y2="365.5938"/><line style="stroke:#181818;stroke-width:0.5;stroke-dasharray:5.0,5.0;" x1="135.5" x2="135.5" y1="36.4883" y2="365.5938"/><line style="stroke:#181818;stroke-width:0.5;stroke-dasharray:5.0,5.0;" x1="245.5" x2="245.5" y1="36.4883" y2="365.5938"/><line style="stroke:#181818;stroke-width:0.5;stroke-dasharray:5.0,5.0;" x1="355.5" x2="355.5" y1="36.4883" y2="365.5938"/><rect fill="#E2E2F0" height="30.4883" rx="2.5" ry="2.5" style="stroke:#181818;stroke-width:0.5;" width="51" x="25" y="5"/><text fill="#000000" font-family="sans-serif" font-size="14" lengthAdjust="spacing" textLength="37" x="32" y="25.5352">client</text><rect fill="#E2E2F0" height="30.4883" rx="2.5" ry="2.5" style="stroke:#181818;stroke-width:0.5;" width="51" x="25" y="364.5938"/><text fill="#000000" font-family="sans-serif" font-size="14" lengthAdjust="spacing" textLength="37" x="32" y="385.1289">client</text><rect fill="#E2E2F0" height="30.4883" rx="2.5" ry="2.5" style="stroke:#181818;stroke-width:0.5;" width="56" x="107.5" y="5"/><text fill="#000000" font-family="sans-serif" font-size="14" lengthAdjust="spacing" textLength="42" x="114.5" y="25.5352">server</text><rect fill="#E2E2F0" height="30.4883" rx="2.5" ry="2.5" style="stroke:#181818;stroke-width:0.5;" width="56" x="107.5" y="364.5938"/><text fill="#000000" font-family="sans-serif" font-size="14" lengthAdjust="spacing" textLength="42" x="114.5" y="385.1289">server</text><path d="M205.5,10 L285.5,10 C290.5,10 290.5,23.2441 290.5,23.2441 C290.5,23.2441 290.5,36.4883 285.5,36.4883 L205.5,36.4883 C200.5,36.4883 200.5,23.2441 200.5,23.2441 C200.5,23.2441 200.5,10 205.5,10 " fill="#E2E2F0" style="stroke:#181818;stroke-width:0.5;"/><path d="M285.5,10 C280.5,10 280.5,23.2441 280.5,23.2441 C280.5,36.4883 285.5,36.4883 285.5,36.4883 " fill="none" style="stroke:#181818;stroke-width:0.5;"/><text fill="#000000" font-family="sans-serif" font-size="14" lengthAdjust="spacing" textLength="70" x="205.5" y="28.5352">syn queue</text><path d="M205.5,364.5938 L285.5,364.5938 C290.5,364.5938 290.5,377.8379 290.5,377.8379 C290.5,377.8379 290.5,391.082 285.5,391.082 L205.5,391.082 C200.5,391.082 200.5,377.8379 200.5,377.8379 C200.5,377.8379 200.5,364.5938 205.5,364.5938 " fill="#E2E2F0" style="stroke:#181818;stroke-width:0.5;"/><path d="M285.5,364.5938 C280.5,364.5938 280.5,377.8379 280.5,377.8379 C280.5,391.082 285.5,391.082 285.5,391.082 " fill="none" style="stroke:#181818;stroke-width:0.5;"/><text fill="#000000" font-family="sans-serif" font-size="14" lengthAdjust="spacing" textLength="70" x="205.5" y="383.1289">syn queue</text><path d="M305.5,10 L406.5,10 C411.5,10 411.5,23.2441 411.5,23.2441 C411.5,23.2441 411.5,36.4883 406.5,36.4883 L305.5,36.4883 C300.5,36.4883 300.5,23.2441 300.5,23.2441 C300.5,23.2441 300.5,10 305.5,10 " fill="#E2E2F0" style="stroke:#181818;stroke-width:0.5;"/><path d="M406.5,10 C401.5,10 401.5,23.2441 401.5,23.2441 C401.5,36.4883 406.5,36.4883 406.5,36.4883 " fill="none" style="stroke:#181818;stroke-width:0.5;"/><text fill="#000000" font-family="sans-serif" font-size="14" lengthAdjust="spacing" textLength="91" x="305.5" y="28.5352">accept queue</text><path d="M305.5,364.5938 L406.5,364.5938 C411.5,364.5938 411.5,377.8379 411.5,377.8379 C411.5,377.8379 411.5,391.082 406.5,391.082 L305.5,391.082 C300.5,391.082 300.5,377.8379 300.5,377.8379 C300.5,377.8379 300.5,364.5938 305.5,364.5938 " fill="#E2E2F0" style="stroke:#181818;stroke-width:0.5;"/><path d="M406.5,364.5938 C401.5,364.5938 401.5,377.8379 401.5,377.8379 C401.5,391.082 406.5,391.082 406.5,391.082 " fill="none" style="stroke:#181818;stroke-width:0.5;"/><text fill="#000000" font-family="sans-serif" font-size="14" lengthAdjust="spacing" textLength="91" x="305.5" y="383.1289">accept queue</text><rect fill="#E9967A" height="288.7949" style="stroke:#181818;stroke-width:1.0;" width="10" x="45.5" y="67.7988"/><rect fill="#008080" height="125.2422" style="stroke:#181818;stroke-width:1.0;" width="10" x="130.5" y="67.7988"/><rect fill="#008080" height="100.9316" style="stroke:#181818;stroke-width:1.0;" width="10" x="130.5" y="255.6621"/><polygon fill="#181818" points="118.5,63.7988,128.5,67.7988,118.5,71.7988,122.5,67.7988" style="stroke:#181818;stroke-width:1.0;"/><line style="stroke:#181818;stroke-width:1.0;" x1="55.5" x2="124.5" y1="67.7988" y2="67.7988"/><text fill="#000000" font-family="sans-serif" font-size="13" lengthAdjust="spacing" textLength="22" x="62.5" y="63.0566">syn</text><rect fill="#FEFFDD" height="23" style="stroke:#181818;stroke-width:0.5;" width="72" x="14" y="80.7988"/><text fill="#000000" font-family="sans-serif" font-size="13" lengthAdjust="spacing" textLength="64" x="18" y="97.3672">SYN_SENT</text><rect fill="#FEFFDD" height="23" style="stroke:#181818;stroke-width:0.5;" width="100" x="85" y="114.1094"/><text fill="#000000" font-family="sans-serif" font-size="13" lengthAdjust="spacing" textLength="92" x="89" y="130.6777">SYN_RECEIVED</text><polygon fill="#181818" points="233.5,159.7305,243.5,163.7305,233.5,167.7305,237.5,163.7305" style="stroke:#181818;stroke-width:1.0;"/><line style="stroke:#181818;stroke-width:1.0;" x1="140.5" x2="239.5" y1="163.7305" y2="163.7305"/><text fill="#000000" font-family="sans-serif" font-size="13" lengthAdjust="spacing" textLength="56" x="147.5" y="158.9883">put conn</text><polygon fill="#181818" points="66.5,189.041,56.5,193.041,66.5,197.041,62.5,193.041" style="stroke:#181818;stroke-width:1.0;"/><line style="stroke:#181818;stroke-width:1.0;" x1="60.5" x2="134.5" y1="193.041" y2="193.041"/><text fill="#000000" font-family="sans-serif" font-size="13" lengthAdjust="spacing" textLength="51" x="72.5" y="188.2988">syn/ack</text><rect fill="#FEFFDD" height="23" style="stroke:#181818;stroke-width:0.5;" width="91" x="5" y="206.041"/><text fill="#000000" font-family="sans-serif" font-size="13" lengthAdjust="spacing" textLength="83" x="9" y="222.6094">ESTABLISHED</text><polygon fill="#181818" points="118.5,251.6621,128.5,255.6621,118.5,259.6621,122.5,255.6621" style="stroke:#181818;stroke-width:1.0;"/><line style="stroke:#181818;stroke-width:1.0;" x1="55.5" x2="124.5" y1="255.6621" y2="255.6621"/><text fill="#000000" font-family="sans-serif" font-size="13" lengthAdjust="spacing" textLength="22" x="62.5" y="250.9199">ack</text><polygon fill="#181818" points="233.5,280.9727,243.5,284.9727,233.5,288.9727,237.5,284.9727" style="stroke:#181818;stroke-width:1.0;"/><line style="stroke:#181818;stroke-width:1.0;" x1="140.5" x2="239.5" y1="284.9727" y2="284.9727"/><text fill="#000000" font-family="sans-serif" font-size="13" lengthAdjust="spacing" textLength="81" x="147.5" y="280.2305">remove conn</text><polygon fill="#181818" points="344,310.2832,354,314.2832,344,318.2832,348,314.2832" style="stroke:#181818;stroke-width:1.0;"/><line style="stroke:#181818;stroke-width:1.0;" x1="140.5" x2="350" y1="314.2832" y2="314.2832"/><text fill="#000000" font-family="sans-serif" font-size="13" lengthAdjust="spacing" textLength="56" x="147.5" y="309.541">put conn</text><rect fill="#FEFFDD" height="23" style="stroke:#181818;stroke-width:0.5;" width="91" x="90" y="327.2832"/><text fill="#000000" font-family="sans-serif" font-size="13" lengthAdjust="spacing" textLength="83" x="94" y="343.8516">ESTABLISHED</text><!--SRC=[VP2n2eCm48RtF4NGKQIxGw6jWGh5eP52ftA46qHDqXW5txxHA0IHJXv-tF_z5mt6rgBM82qLROtk0_qw4Ht07is8PeP-8jy11wHHFqcwZD729ha140Ar3PZ_GLPBUjuYauJ65K9BisKTXAr7iBZLYNCm3OUsKv8OgHnGyvQd6UNlyiDPMONC1tlsP3TMl5XELjliTPKpgWTtiP8o05krr5SvWMYEb8nNb-kZu7UN-k-QUNrlDTYvhBruVQkWrC4rWVO7]--></g></svg>